<svg
                        id="setplaylist_logo"
                        width="151"
                        height="51"
                        viewBox="0 0 151 51"
                        fill="none"
                        xmlns="http://www.w3.org/2000/svg"
                    >
                        <path
                            d="M73.848 27.192C71.72 27.192 70.016 26.792 68.736 25.992C67.456 25.176 66.816 23.936 66.816 22.272C66.816 21.392 66.968 20.72 67.272 20.256C67.576 19.792 68.024 19.56 68.616 19.56C69.048 19.56 69.4 19.672 69.672 19.896C69.944 20.12 70.08 20.408 70.08 20.76C70.08 21.08 70.056 21.36 70.008 21.6C70.008 21.664 69.992 21.776 69.96 21.936C69.944 22.096 69.936 22.264 69.936 22.44C69.936 23.16 70.296 23.696 71.016 24.048C71.752 24.4 72.776 24.576 74.088 24.576C75.448 24.576 76.512 24.336 77.28 23.856C78.048 23.36 78.432 22.672 78.432 21.792C78.432 21.248 78.256 20.784 77.904 20.4C77.552 20 77.112 19.672 76.584 19.416C76.056 19.144 75.312 18.816 74.352 18.432C73.12 17.952 72.112 17.496 71.328 17.064C70.56 16.632 69.896 16.048 69.336 15.312C68.792 14.56 68.52 13.632 68.52 12.528C68.52 11.376 68.824 10.352 69.432 9.456C70.056 8.56 70.944 7.864 72.096 7.368C73.264 6.872 74.632 6.624 76.2 6.624C77.368 6.624 78.44 6.8 79.416 7.152C80.392 7.488 81.168 8.008 81.744 8.712C82.336 9.416 82.632 10.28 82.632 11.304C82.632 12.312 82.48 13.072 82.176 13.584C81.872 14.096 81.424 14.352 80.832 14.352C80.416 14.352 80.064 14.224 79.776 13.968C79.504 13.712 79.368 13.408 79.368 13.056C79.368 12.752 79.392 12.472 79.44 12.216C79.488 11.736 79.512 11.432 79.512 11.304C79.512 10.632 79.184 10.12 78.528 9.768C77.872 9.416 77.056 9.24 76.08 9.24C74.704 9.24 73.648 9.496 72.912 10.008C72.192 10.504 71.832 11.208 71.832 12.12C71.832 12.728 72.016 13.248 72.384 13.68C72.768 14.112 73.24 14.472 73.8 14.76C74.36 15.048 75.144 15.392 76.152 15.792C77.368 16.288 78.344 16.736 79.08 17.136C79.816 17.536 80.44 18.08 80.952 18.768C81.48 19.456 81.744 20.304 81.744 21.312C81.744 23.2 81.024 24.656 79.584 25.68C78.16 26.688 76.248 27.192 73.848 27.192ZM94.4966 21.648C94.7046 21.648 94.8646 21.744 94.9766 21.936C95.1046 22.128 95.1686 22.392 95.1686 22.728C95.1686 23.368 95.0166 23.864 94.7126 24.216C94.1206 24.936 93.2806 25.6 92.1926 26.208C91.1206 26.816 89.9686 27.12 88.7366 27.12C87.0566 27.12 85.7526 26.664 84.8246 25.752C83.8966 24.84 83.4326 23.592 83.4326 22.008C83.4326 20.904 83.6646 19.88 84.1286 18.936C84.5926 17.976 85.2326 17.216 86.0486 16.656C86.8806 16.096 87.8166 15.816 88.8566 15.816C89.7846 15.816 90.5286 16.096 91.0886 16.656C91.6486 17.2 91.9286 17.944 91.9286 18.888C91.9286 19.992 91.5286 20.944 90.7286 21.744C89.9446 22.528 88.6086 23.152 86.7206 23.616C87.1206 24.352 87.8806 24.72 89.0006 24.72C89.7206 24.72 90.5366 24.472 91.4486 23.976C92.3766 23.464 93.1766 22.8 93.8486 21.984C94.0406 21.76 94.2566 21.648 94.4966 21.648ZM88.4486 18.168C87.8566 18.168 87.3526 18.512 86.9366 19.2C86.5366 19.888 86.3366 20.72 86.3366 21.696V21.744C87.2806 21.52 88.0246 21.184 88.5686 20.736C89.1126 20.288 89.3846 19.768 89.3846 19.176C89.3846 18.872 89.2966 18.632 89.1206 18.456C88.9606 18.264 88.7366 18.168 88.4486 18.168ZM97.1745 18.096C97.1425 18.896 97.1265 19.52 97.1265 19.968C97.1265 21.12 97.1825 22.024 97.2945 22.68C97.4225 23.32 97.6225 23.784 97.8945 24.072C98.1825 24.344 98.5745 24.48 99.0705 24.48C99.3265 24.48 99.6305 24.4 99.9825 24.24C100.335 24.08 100.655 23.872 100.943 23.616C101.119 23.456 101.295 23.376 101.471 23.376C101.663 23.376 101.815 23.488 101.927 23.712C102.055 23.92 102.119 24.176 102.119 24.48C102.119 24.784 102.055 25.08 101.927 25.368C101.815 25.656 101.639 25.896 101.399 26.088C100.567 26.776 99.6225 27.12 98.5665 27.12C97.0465 27.12 95.9345 26.488 95.2305 25.224C94.5265 23.944 94.1745 22.28 94.1745 20.232C94.1745 19.528 94.1985 18.816 94.2465 18.096H93.3105C92.8305 18.096 92.5025 18.008 92.3265 17.832C92.1665 17.656 92.0865 17.376 92.0865 16.992C92.0865 16.096 92.4465 15.648 93.1665 15.648H94.5345C94.8065 13.888 95.2225 12.28 95.7825 10.824C96.3425 9.368 97.0145 8.208 97.7985 7.344C98.5985 6.48 99.4545 6.048 100.367 6.048C101.039 6.048 101.567 6.344 101.951 6.936C102.335 7.528 102.527 8.272 102.527 9.168C102.527 11.648 101.487 13.808 99.4065 15.648H102.095C102.351 15.648 102.535 15.704 102.647 15.816C102.759 15.928 102.815 16.136 102.815 16.44C102.815 17.544 101.911 18.096 100.103 18.096H97.1745ZM99.7185 8.352C99.4785 8.352 99.2065 8.656 98.9025 9.264C98.6145 9.856 98.3345 10.688 98.0625 11.76C97.8065 12.816 97.5905 13.992 97.4145 15.288C98.3585 14.472 99.0625 13.56 99.5265 12.552C100.007 11.528 100.247 10.6 100.247 9.768C100.247 8.824 100.071 8.352 99.7185 8.352Z"
                            fill="white"
                        />
                        <path
                            d="M93.576 43.648C93.784 43.648 93.944 43.744 94.056 43.936C94.184 44.128 94.248 44.392 94.248 44.728C94.248 45.352 94.096 45.848 93.792 46.216C92.896 47.288 92.024 48.04 91.176 48.472C90.344 48.904 89.336 49.12 88.152 49.12C87.32 49.12 86.552 49.016 85.848 48.808C85.144 48.6 84.288 48.288 83.28 47.872C82.368 47.472 81.488 47.144 80.64 46.888C79.824 48.376 78.6 49.12 76.968 49.12C76.072 49.12 75.36 48.92 74.832 48.52C74.288 48.104 74.016 47.576 74.016 46.936C74.016 46.152 74.392 45.504 75.144 44.992C75.896 44.464 76.896 44.2 78.144 44.2H78.456L78.888 37.216C78.984 35.616 79.272 34.296 79.752 33.256C80.232 32.216 80.896 31.328 81.744 30.592C82.48 29.952 83.32 29.472 84.264 29.152C85.208 28.816 86.208 28.648 87.264 28.648C88.992 28.648 90.32 29.096 91.248 29.992C92.176 30.888 92.64 32.056 92.64 33.496C92.64 34.472 92.464 35.264 92.112 35.872C91.76 36.464 91.272 36.76 90.648 36.76C90.2 36.76 89.848 36.656 89.592 36.448C89.336 36.224 89.208 35.912 89.208 35.512C89.208 35.368 89.24 35.104 89.304 34.72C89.4 34.272 89.448 33.872 89.448 33.52C89.448 32.848 89.248 32.32 88.848 31.936C88.464 31.536 87.872 31.336 87.072 31.336C85.664 31.336 84.576 31.8 83.808 32.728C83.04 33.64 82.552 35.08 82.344 37.048L81.792 42.496C81.712 43.264 81.608 43.928 81.48 44.488C82.504 44.664 83.784 44.944 85.32 45.328C86.216 45.552 86.904 45.712 87.384 45.808C87.864 45.904 88.288 45.952 88.656 45.952C89.584 45.952 90.376 45.8 91.032 45.496C91.704 45.176 92.336 44.672 92.928 43.984C93.12 43.76 93.336 43.648 93.576 43.648ZM96.1644 36.232C95.4924 36.232 94.9884 36.08 94.6524 35.776C94.3164 35.456 94.1484 35.016 94.1484 34.456C94.1484 33.896 94.3644 33.432 94.7964 33.064C95.2444 32.68 95.7964 32.488 96.4524 32.488C97.0444 32.488 97.5244 32.632 97.8924 32.92C98.2604 33.208 98.4444 33.616 98.4444 34.144C98.4444 34.784 98.2364 35.296 97.8204 35.68C97.4044 36.048 96.8524 36.232 96.1644 36.232ZM95.9724 49.12C94.9324 49.12 94.1724 48.752 93.6924 48.016C93.2284 47.28 92.9964 46.304 92.9964 45.088C92.9964 44.368 93.0844 43.448 93.2604 42.328C93.4524 41.192 93.6924 40.136 93.9804 39.16C94.1244 38.648 94.3164 38.296 94.5564 38.104C94.7964 37.912 95.1804 37.816 95.7084 37.816C96.5244 37.816 96.9324 38.088 96.9324 38.632C96.9324 39.032 96.7804 39.96 96.4764 41.416C96.0924 43.176 95.9004 44.368 95.9004 44.992C95.9004 45.472 95.9644 45.84 96.0924 46.096C96.2204 46.352 96.4364 46.48 96.7404 46.48C97.0284 46.48 97.3884 46.28 97.8204 45.88C98.2524 45.48 98.8284 44.848 99.5484 43.984C99.7404 43.76 99.9564 43.648 100.196 43.648C100.404 43.648 100.564 43.744 100.676 43.936C100.804 44.128 100.868 44.392 100.868 44.728C100.868 45.368 100.716 45.864 100.412 46.216C98.8284 48.152 97.3484 49.12 95.9724 49.12ZM104.111 49.648C103.279 49.648 102.639 49.456 102.191 49.072C101.759 48.688 101.543 48.256 101.543 47.776C101.543 47.36 101.695 47 101.999 46.696C102.303 46.392 102.751 46.24 103.343 46.24C103.551 46.24 103.791 46.264 104.063 46.312C104.351 46.344 104.567 46.368 104.711 46.384C104.695 45.968 104.599 45.576 104.423 45.208C104.263 44.84 104.055 44.488 103.799 44.152C103.543 43.8 103.303 43.496 103.079 43.24C102.583 44.184 102.087 44.968 101.591 45.592C101.111 46.216 100.583 46.808 100.007 47.368C99.7187 47.656 99.4147 47.8 99.0947 47.8C98.8387 47.8 98.6307 47.712 98.4707 47.536C98.3107 47.344 98.2307 47.112 98.2307 46.84C98.2307 46.52 98.3427 46.224 98.5667 45.952L98.8787 45.568C99.7587 44.48 100.423 43.584 100.871 42.88C101.143 42.416 101.463 41.8 101.831 41.032C102.199 40.248 102.559 39.44 102.911 38.608C103.215 37.904 103.847 37.552 104.807 37.552C105.255 37.552 105.567 37.592 105.743 37.672C105.919 37.752 106.007 37.88 106.007 38.056C106.007 38.152 105.975 38.304 105.911 38.512C105.847 38.72 105.759 38.928 105.647 39.136C105.359 39.712 105.215 40.2 105.215 40.6C105.215 40.84 105.295 41.104 105.455 41.392C105.631 41.68 105.895 42.04 106.247 42.472C106.759 43.144 107.143 43.72 107.399 44.2C107.671 44.664 107.807 45.176 107.807 45.736C107.807 45.896 107.791 46.12 107.759 46.408C108.543 46.104 109.463 45.296 110.519 43.984C110.711 43.76 110.927 43.648 111.167 43.648C111.375 43.648 111.535 43.744 111.647 43.936C111.775 44.128 111.839 44.392 111.839 44.728C111.839 45.336 111.687 45.832 111.383 46.216C110.583 47.208 109.815 47.888 109.079 48.256C108.359 48.608 107.463 48.8 106.391 48.832C105.751 49.376 104.991 49.648 104.111 49.648ZM114.569 40.096C114.537 40.896 114.521 41.52 114.521 41.968C114.521 43.12 114.577 44.024 114.689 44.68C114.817 45.32 115.017 45.784 115.289 46.072C115.577 46.344 115.969 46.48 116.465 46.48C116.721 46.48 117.025 46.4 117.377 46.24C117.729 46.08 118.049 45.872 118.337 45.616C118.513 45.456 118.689 45.376 118.865 45.376C119.057 45.376 119.209 45.488 119.321 45.712C119.449 45.92 119.513 46.176 119.513 46.48C119.513 46.784 119.449 47.08 119.321 47.368C119.209 47.656 119.033 47.896 118.793 48.088C117.961 48.776 117.017 49.12 115.961 49.12C114.441 49.12 113.329 48.488 112.625 47.224C111.921 45.944 111.569 44.28 111.569 42.232C111.569 41.528 111.593 40.816 111.641 40.096H110.705C110.225 40.096 109.897 40.008 109.721 39.832C109.561 39.656 109.481 39.376 109.481 38.992C109.481 38.096 109.841 37.648 110.561 37.648H111.929C112.201 35.888 112.617 34.28 113.177 32.824C113.737 31.368 114.409 30.208 115.193 29.344C115.993 28.48 116.849 28.048 117.761 28.048C118.433 28.048 118.961 28.344 119.345 28.936C119.729 29.528 119.921 30.272 119.921 31.168C119.921 33.648 118.881 35.808 116.801 37.648H119.489C119.745 37.648 119.929 37.704 120.041 37.816C120.153 37.928 120.209 38.136 120.209 38.44C120.209 39.544 119.305 40.096 117.497 40.096H114.569ZM117.113 30.352C116.873 30.352 116.601 30.656 116.297 31.264C116.009 31.856 115.729 32.688 115.457 33.76C115.201 34.816 114.985 35.992 114.809 37.288C115.753 36.472 116.457 35.56 116.921 34.552C117.401 33.528 117.641 32.6 117.641 31.768C117.641 30.824 117.465 30.352 117.113 30.352Z"
                            fill="white"
                        />
                        <path
                            d="M121.752 12.696C121.752 14.056 121.4 15.304 120.696 16.44C119.992 17.576 118.968 18.504 117.624 19.224C116.28 19.944 114.68 20.368 112.824 20.496L111.792 26.28C111.392 28.504 110.304 29.616 108.528 29.616C107.552 29.616 106.648 29.328 105.816 28.752C105 28.176 104.344 27.296 103.848 26.112C103.352 24.928 103.104 23.472 103.104 21.744C103.104 18.496 103.624 15.744 104.664 13.488C105.72 11.216 107.128 9.52 108.888 8.4C110.664 7.264 112.616 6.696 114.744 6.696C116.248 6.696 117.52 6.96 118.56 7.488C119.616 8.016 120.408 8.736 120.936 9.648C121.48 10.544 121.752 11.56 121.752 12.696ZM113.256 18.024C116.536 17.608 118.176 15.904 118.176 12.912C118.176 11.856 117.824 11 117.12 10.344C116.432 9.672 115.36 9.336 113.904 9.336C112.256 9.336 110.816 9.856 109.584 10.896C108.368 11.936 107.424 13.384 106.752 15.24C106.096 17.08 105.768 19.184 105.768 21.552C105.768 22.544 105.864 23.424 106.056 24.192C106.264 24.96 106.52 25.56 106.824 25.992C107.144 26.408 107.448 26.616 107.736 26.616C108.136 26.616 108.44 26.064 108.648 24.96L109.44 20.424C108.816 20.328 108.544 20.288 108.624 20.304C108.144 20.224 107.832 20.08 107.688 19.872C107.544 19.648 107.472 19.368 107.472 19.032C107.472 18.68 107.568 18.4 107.76 18.192C107.968 17.984 108.248 17.88 108.6 17.88C108.76 17.88 108.88 17.888 108.96 17.904C109.344 17.968 109.64 18.008 109.848 18.024C110.056 16.776 110.352 15.104 110.736 13.008C110.832 12.464 111.048 12.08 111.384 11.856C111.736 11.616 112.144 11.496 112.608 11.496C113.136 11.496 113.512 11.6 113.736 11.808C113.976 12 114.096 12.312 114.096 12.744C114.096 13 114.08 13.208 114.048 13.368L113.256 18.024ZM131.561 21.648C131.769 21.648 131.929 21.744 132.041 21.936C132.169 22.128 132.233 22.392 132.233 22.728C132.233 23.368 132.081 23.864 131.777 24.216C131.089 25.064 130.337 25.76 129.521 26.304C128.721 26.848 127.809 27.12 126.785 27.12C125.377 27.12 124.329 26.48 123.641 25.2C122.969 23.92 122.633 22.264 122.633 20.232C122.633 18.28 122.881 16.056 123.377 13.56C123.889 11.064 124.633 8.92 125.609 7.128C126.601 5.336 127.777 4.44 129.137 4.44C129.905 4.44 130.505 4.8 130.937 5.52C131.385 6.224 131.609 7.24 131.609 8.568C131.609 10.472 131.081 12.68 130.025 15.192C128.969 17.704 127.537 20.192 125.729 22.656C125.841 23.312 126.025 23.784 126.281 24.072C126.537 24.344 126.873 24.48 127.289 24.48C127.945 24.48 128.521 24.296 129.017 23.928C129.513 23.544 130.145 22.896 130.913 21.984C131.105 21.76 131.321 21.648 131.561 21.648ZM128.609 6.816C128.241 6.816 127.825 7.48 127.361 8.808C126.897 10.136 126.489 11.784 126.137 13.752C125.785 15.72 125.593 17.608 125.561 19.416C126.697 17.544 127.601 15.672 128.273 13.8C128.945 11.912 129.281 10.192 129.281 8.64C129.281 7.424 129.057 6.816 128.609 6.816ZM133.01 27.12C132.018 27.12 131.226 26.76 130.634 26.04C130.042 25.32 129.746 24.376 129.746 23.208C129.746 21.928 130.042 20.72 130.634 19.584C131.226 18.432 132.01 17.512 132.986 16.824C133.978 16.12 135.026 15.768 136.13 15.768C136.482 15.768 136.714 15.84 136.826 15.984C136.954 16.112 137.058 16.352 137.138 16.704C137.474 16.64 137.826 16.608 138.194 16.608C138.978 16.608 139.37 16.888 139.37 17.448C139.37 17.784 139.25 18.584 139.01 19.848C138.642 21.688 138.458 22.968 138.458 23.688C138.458 23.928 138.514 24.12 138.626 24.264C138.754 24.408 138.914 24.48 139.106 24.48C139.41 24.48 139.778 24.288 140.21 23.904C140.642 23.504 141.226 22.864 141.962 21.984C142.154 21.76 142.37 21.648 142.61 21.648C142.818 21.648 142.978 21.744 143.09 21.936C143.218 22.128 143.282 22.392 143.282 22.728C143.282 23.368 143.13 23.864 142.826 24.216C142.17 25.032 141.474 25.72 140.738 26.28C140.002 26.84 139.29 27.12 138.602 27.12C138.074 27.12 137.586 26.944 137.138 26.592C136.706 26.224 136.378 25.728 136.154 25.104C135.322 26.448 134.274 27.12 133.01 27.12ZM133.874 24.696C134.226 24.696 134.562 24.488 134.882 24.072C135.202 23.656 135.434 23.104 135.578 22.416L136.466 18C135.794 18.016 135.17 18.272 134.594 18.768C134.034 19.248 133.586 19.888 133.25 20.688C132.914 21.488 132.746 22.336 132.746 23.232C132.746 23.728 132.842 24.096 133.034 24.336C133.242 24.576 133.522 24.696 133.874 24.696ZM149.732 15.816C150.1 15.816 150.356 15.864 150.5 15.96C150.644 16.056 150.716 16.216 150.716 16.44C150.716 16.824 150.508 18.192 150.092 20.544C149.724 22.8 149.508 24.136 149.444 24.552C148.852 28.664 148.036 31.92 146.996 34.32C145.956 36.72 144.572 37.92 142.844 37.92C142.028 37.92 141.364 37.664 140.852 37.152C140.34 36.656 140.084 36 140.084 35.184C140.084 34.432 140.252 33.664 140.588 32.88C140.94 32.096 141.58 31.192 142.508 30.168C143.452 29.16 144.78 28 146.492 26.688L146.564 26.136C146.676 25.544 146.804 24.696 146.948 23.592C146.628 24.744 146.18 25.624 145.604 26.232C145.028 26.824 144.42 27.12 143.78 27.12C143.06 27.12 142.468 26.792 142.004 26.136C141.556 25.464 141.332 24.632 141.332 23.64C141.332 22.44 141.412 21.344 141.572 20.352C141.732 19.344 141.996 18.28 142.364 17.16C142.524 16.68 142.748 16.336 143.036 16.128C143.324 15.92 143.78 15.816 144.404 15.816C144.756 15.816 144.996 15.872 145.124 15.984C145.268 16.096 145.34 16.264 145.34 16.488C145.34 16.616 145.252 17.048 145.076 17.784C144.916 18.376 144.788 18.912 144.692 19.392C144.564 20.048 144.452 20.68 144.356 21.288C144.26 21.88 144.212 22.368 144.212 22.752C144.212 23.36 144.38 23.664 144.716 23.664C144.956 23.664 145.252 23.424 145.604 22.944C145.972 22.464 146.356 21.736 146.756 20.76C147.172 19.784 147.572 18.584 147.956 17.16C148.084 16.68 148.276 16.336 148.532 16.128C148.804 15.92 149.204 15.816 149.732 15.816ZM143.108 35.592C143.508 35.592 143.956 35.128 144.452 34.2C144.948 33.272 145.444 31.728 145.94 29.568C144.708 30.608 143.812 31.552 143.252 32.4C142.708 33.264 142.436 34.016 142.436 34.656C142.436 34.928 142.484 35.152 142.58 35.328C142.692 35.504 142.868 35.592 143.108 35.592Z"
                            fill="white"
                        />
                        <path
                            fill-rule="evenodd"
                            clip-rule="evenodd"
                            d="M46.9048 0.14286C47.3031 0.14286 47.6851 0.299642 47.9667 0.578714C48.2484 0.857786 48.4066 1.23629 48.4066 1.63096V34.3691C48.4066 34.7637 48.2484 35.1422 47.9667 35.4213C47.6851 35.7004 47.3031 35.8571 46.9048 35.8571C46.5065 35.8571 46.1245 35.7004 45.8428 35.4213C45.5612 35.1422 45.403 34.7637 45.403 34.3691V1.63096C45.403 1.23629 45.5612 0.857786 45.8428 0.578714C46.1245 0.299642 46.5065 0.14286 46.9048 0.14286ZM40.8975 6.09524C41.2958 6.09524 41.6778 6.25202 41.9594 6.5311C42.2411 6.81017 42.3993 7.18867 42.3993 7.58334V28.4167C42.3993 28.8113 42.2411 29.1898 41.9594 29.4689C41.6778 29.748 41.2958 29.9048 40.8975 29.9048C40.4992 29.9048 40.1172 29.748 39.8355 29.4689C39.5539 29.1898 39.3956 28.8113 39.3956 28.4167V7.58334C39.3956 7.18867 39.5539 6.81017 39.8355 6.5311C40.1172 6.25202 40.4992 6.09524 40.8975 6.09524ZM52.9121 6.09524C53.3104 6.09524 53.6924 6.25202 53.9741 6.5311C54.2557 6.81017 54.414 7.18867 54.414 7.58334V28.4167C54.414 28.8113 54.2557 29.1898 53.9741 29.4689C53.6924 29.748 53.3104 29.9048 52.9121 29.9048C52.5138 29.9048 52.1318 29.748 51.8502 29.4689C51.5685 29.1898 51.4103 28.8113 51.4103 28.4167V7.58334C51.4103 7.18867 51.5685 6.81017 51.8502 6.5311C52.1318 6.25202 52.5138 6.09524 52.9121 6.09524ZM34.8901 10.5595C35.2885 10.5595 35.6704 10.7163 35.9521 10.9954C36.2337 11.2745 36.392 11.653 36.392 12.0476V23.9524C36.392 24.3471 36.2337 24.7256 35.9521 25.0046C35.6704 25.2837 35.2885 25.4405 34.8901 25.4405C34.4918 25.4405 34.1098 25.2837 33.8282 25.0046C33.5465 24.7256 33.3883 24.3471 33.3883 23.9524V12.0476C33.3883 11.653 33.5465 11.2745 33.8282 10.9954C34.1098 10.7163 34.4918 10.5595 34.8901 10.5595ZM58.9194 10.5595C59.3178 10.5595 59.6998 10.7163 59.9814 10.9954C60.2631 11.2745 60.4213 11.653 60.4213 12.0476V23.9524C60.4213 24.3471 60.2631 24.7256 59.9814 25.0046C59.6998 25.2837 59.3178 25.4405 58.9194 25.4405C58.5211 25.4405 58.1391 25.2837 57.8575 25.0046C57.5758 24.7256 57.4176 24.3471 57.4176 23.9524V12.0476C57.4176 11.653 57.5758 11.2745 57.8575 10.9954C58.1391 10.7163 58.5211 10.5595 58.9194 10.5595ZM28.8828 13.5357C29.2811 13.5357 29.6631 13.6925 29.9448 13.9716C30.2264 14.2506 30.3846 14.6291 30.3846 15.0238V20.9762C30.3846 21.3709 30.2264 21.7494 29.9448 22.0284C29.6631 22.3075 29.2811 22.4643 28.8828 22.4643C28.4845 22.4643 28.1025 22.3075 27.8209 22.0284C27.5392 21.7494 27.381 21.3709 27.381 20.9762V15.0238C27.381 14.6291 27.5392 14.2506 27.8209 13.9716C28.1025 13.6925 28.4845 13.5357 28.8828 13.5357ZM64.9268 13.5357C65.3251 13.5357 65.7071 13.6925 65.9887 13.9716C66.2704 14.2506 66.4286 14.6291 66.4286 15.0238V20.9762C66.4286 21.3709 66.2704 21.7494 65.9887 22.0284C65.7071 22.3075 65.3251 22.4643 64.9268 22.4643C64.5285 22.4643 64.1465 22.3075 63.8648 22.0284C63.5832 21.7494 63.4249 21.3709 63.4249 20.9762V15.0238C63.4249 14.6291 63.5832 14.2506 63.8648 13.9716C64.1465 13.6925 64.5285 13.5357 64.9268 13.5357Z"
                            fill="white"
                        />
                        <path
                            fill-rule="evenodd"
                            clip-rule="evenodd"
                            d="M19.5238 3.71429C19.9221 3.71429 20.3041 3.87107 20.5858 4.15014C20.8674 4.42921 21.0256 4.80771 21.0256 5.20238V37.9405C21.0256 38.3351 20.8674 38.7136 20.5858 38.9927C20.3041 39.2718 19.9221 39.4286 19.5238 39.4286C19.1255 39.4286 18.7435 39.2718 18.4619 38.9927C18.1802 38.7136 18.022 38.3351 18.022 37.9405V5.20238C18.022 4.80771 18.1802 4.42921 18.4619 4.15014C18.7435 3.87107 19.1255 3.71429 19.5238 3.71429ZM13.5165 9.66667C13.9148 9.66667 14.2968 9.82345 14.5784 10.1025C14.8601 10.3816 15.0183 10.7601 15.0183 11.1548V31.9881C15.0183 32.3828 14.8601 32.7613 14.5784 33.0403C14.2968 33.3194 13.9148 33.4762 13.5165 33.4762C13.1182 33.4762 12.7362 33.3194 12.4545 33.0403C12.1729 32.7613 12.0147 32.3828 12.0147 31.9881V11.1548C12.0147 10.7601 12.1729 10.3816 12.4545 10.1025C12.7362 9.82345 13.1182 9.66667 13.5165 9.66667ZM25.5311 9.66667C25.9294 9.66667 26.3114 9.82345 26.5931 10.1025C26.8747 10.3816 27.033 10.7601 27.033 11.1548V31.9881C27.033 32.3828 26.8747 32.7613 26.5931 33.0403C26.3114 33.3194 25.9294 33.4762 25.5311 33.4762C25.1328 33.4762 24.7508 33.3194 24.4692 33.0403C24.1875 32.7613 24.0293 32.3828 24.0293 31.9881V11.1548C24.0293 10.7601 24.1875 10.3816 24.4692 10.1025C24.7508 9.82345 25.1328 9.66667 25.5311 9.66667ZM7.50916 14.131C7.90747 14.131 8.28946 14.2877 8.57111 14.5668C8.85276 14.8459 9.01099 15.2244 9.01099 15.619V27.5238C9.01099 27.9185 8.85276 28.297 8.57111 28.5761C8.28946 28.8551 7.90747 29.0119 7.50916 29.0119C7.11085 29.0119 6.72885 28.8551 6.4472 28.5761C6.16555 28.297 6.00733 27.9185 6.00733 27.5238V15.619C6.00733 15.2244 6.16555 14.8459 6.4472 14.5668C6.72885 14.2877 7.11085 14.131 7.50916 14.131ZM31.5385 14.131C31.9368 14.131 32.3188 14.2877 32.6004 14.5668C32.8821 14.8459 33.0403 15.2244 33.0403 15.619V27.5238C33.0403 27.9185 32.8821 28.297 32.6004 28.5761C32.3188 28.8551 31.9368 29.0119 31.5385 29.0119C31.1402 29.0119 30.7582 28.8551 30.4765 28.5761C30.1949 28.297 30.0366 27.9185 30.0366 27.5238V15.619C30.0366 15.2244 30.1949 14.8459 30.4765 14.5668C30.7582 14.2877 31.1402 14.131 31.5385 14.131ZM1.50183 17.1071C1.90014 17.1071 2.28214 17.2639 2.56379 17.543C2.84543 17.8221 3.00366 18.2006 3.00366 18.5952V24.5476C3.00366 24.9423 2.84543 25.3208 2.56379 25.5999C2.28214 25.8789 1.90014 26.0357 1.50183 26.0357C1.10352 26.0357 0.721525 25.8789 0.439877 25.5999C0.158229 25.3208 0 24.9423 0 24.5476V18.5952C0 18.2006 0.158229 17.8221 0.439877 17.543C0.721525 17.2639 1.10352 17.1071 1.50183 17.1071ZM37.5458 17.1071C37.9441 17.1071 38.3261 17.2639 38.6077 17.543C38.8894 17.8221 39.0476 18.2006 39.0476 18.5952V24.5476C39.0476 24.9423 38.8894 25.3208 38.6077 25.5999C38.3261 25.8789 37.9441 26.0357 37.5458 26.0357C37.1475 26.0357 36.7655 25.8789 36.4838 25.5999C36.2022 25.3208 36.044 24.9423 36.044 24.5476V18.5952C36.044 18.2006 36.2022 17.8221 36.4838 17.543C36.7655 17.2639 37.1475 17.1071 37.5458 17.1071Z"
                            fill="white"
                        />
                        <path
                            fill-rule="evenodd"
                            clip-rule="evenodd"
                            d="M38.5714 14.4286C38.9697 14.4286 39.3517 14.5854 39.6334 14.8644C39.915 15.1435 40.0732 15.522 40.0732 15.9167V48.6548C40.0732 49.0494 39.915 49.4279 39.6334 49.707C39.3517 49.9861 38.9697 50.1429 38.5714 50.1429C38.1731 50.1429 37.7911 49.9861 37.5095 49.707C37.2278 49.4279 37.0696 49.0494 37.0696 48.6548V15.9167C37.0696 15.522 37.2278 15.1435 37.5095 14.8644C37.7911 14.5854 38.1731 14.4286 38.5714 14.4286ZM32.5641 20.381C32.9624 20.381 33.3444 20.5377 33.626 20.8168C33.9077 21.0959 34.0659 21.4744 34.0659 21.8691V42.7024C34.0659 43.0971 33.9077 43.4756 33.626 43.7546C33.3444 44.0337 32.9624 44.1905 32.5641 44.1905C32.1658 44.1905 31.7838 44.0337 31.5021 43.7546C31.2205 43.4756 31.0623 43.0971 31.0623 42.7024V21.8691C31.0623 21.4744 31.2205 21.0959 31.5021 20.8168C31.7838 20.5377 32.1658 20.381 32.5641 20.381ZM44.5787 20.381C44.9771 20.381 45.359 20.5377 45.6407 20.8168C45.9223 21.0959 46.0806 21.4744 46.0806 21.8691V42.7024C46.0806 43.0971 45.9223 43.4756 45.6407 43.7546C45.359 44.0337 44.9771 44.1905 44.5787 44.1905C44.1804 44.1905 43.7984 44.0337 43.5168 43.7546C43.2351 43.4756 43.0769 43.0971 43.0769 42.7024V21.8691C43.0769 21.4744 43.2351 21.0959 43.5168 20.8168C43.7984 20.5377 44.1804 20.381 44.5787 20.381ZM26.5568 24.8452C26.9551 24.8452 27.3371 25.002 27.6187 25.2811C27.9004 25.5602 28.0586 25.9387 28.0586 26.3333V38.2381C28.0586 38.6328 27.9004 39.0113 27.6187 39.2903C27.3371 39.5694 26.9551 39.7262 26.5568 39.7262C26.1585 39.7262 25.7765 39.5694 25.4948 39.2903C25.2132 39.0113 25.0549 38.6328 25.0549 38.2381V26.3333C25.0549 25.9387 25.2132 25.5602 25.4948 25.2811C25.7765 25.002 26.1585 24.8452 26.5568 24.8452ZM50.5861 24.8452C50.9844 24.8452 51.3664 25.002 51.648 25.2811C51.9297 25.5602 52.0879 25.9387 52.0879 26.3333V38.2381C52.0879 38.6328 51.9297 39.0113 51.648 39.2903C51.3664 39.5694 50.9844 39.7262 50.5861 39.7262C50.1878 39.7262 49.8058 39.5694 49.5241 39.2903C49.2425 39.0113 49.0842 38.6328 49.0842 38.2381V26.3333C49.0842 25.9387 49.2425 25.5602 49.5241 25.2811C49.8058 25.002 50.1878 24.8452 50.5861 24.8452ZM20.5494 27.8214C20.9477 27.8214 21.3297 27.9782 21.6114 28.2573C21.893 28.5364 22.0513 28.9149 22.0513 29.3095V35.2619C22.0513 35.6566 21.893 36.0351 21.6114 36.3142C21.3297 36.5932 20.9477 36.75 20.5494 36.75C20.1511 36.75 19.7691 36.5932 19.4875 36.3142C19.2058 36.0351 19.0476 35.6566 19.0476 35.2619V29.3095C19.0476 28.9149 19.2058 28.5364 19.4875 28.2573C19.7691 27.9782 20.1511 27.8214 20.5494 27.8214ZM56.5934 27.8214C56.9917 27.8214 57.3737 27.9782 57.6553 28.2573C57.937 28.5364 58.0952 28.9149 58.0952 29.3095V35.2619C58.0952 35.6566 57.937 36.0351 57.6553 36.3142C57.3737 36.5932 56.9917 36.75 56.5934 36.75C56.1951 36.75 55.8131 36.5932 55.5314 36.3142C55.2498 36.0351 55.0916 35.6566 55.0916 35.2619V29.3095C55.0916 28.9149 55.2498 28.5364 55.5314 28.2573C55.8131 27.9782 56.1951 27.8214 56.5934 27.8214Z"
                            fill="white"
                        />
                    </svg>
